<?xml version="1.0" encoding="UTF-8" standalone="no"?>
<!-- Uploaded to: SVG Repo, www.svgrepo.com, Generator: SVG Repo Mixer Tools -->

<svg
   width="800px"
   height="800px"
   viewBox="0 0 24 24"
   fill="none"
   version="1.1"
   id="svg1"
   sodipodi:docname="gdaddon-icon.svg"
   xml:space="preserve"
   inkscape:version="1.4.4 (dcaf3e7, 2026-05-05)"
   xmlns:inkscape="http://www.inkscape.org/namespaces/inkscape"
   xmlns:sodipodi="http://sodipodi.sourceforge.net/DTD/sodipodi-0.dtd"
   xmlns="http://www.w3.org/2000/svg"
   xmlns:svg="http://www.w3.org/2000/svg"><defs
     id="defs1"><inkscape:path-effect
       effect="fillet_chamfer"
       id="path-effect13"
       is_visible="true"
       lpeversion="1"
       nodesatellites_param="F,0,0,1,0,0,0,1 @ F,0,0,1,0,0,0,1 @ F,0,0,1,0,0,0,1 @ F,0,0,1,0,0,0,1"
       radius="0"
       unit="px"
       method="auto"
       mode="F"
       chamfer_steps="1"
       flexible="false"
       use_knot_distance="true"
       apply_no_radius="true"
       apply_with_radius="true"
       only_selected="false"
       hide_knots="false" /></defs><sodipodi:namedview
     id="namedview1"
     pagecolor="#ffffff"
     bordercolor="#000000"
     borderopacity="0.25"
     inkscape:showpageshadow="2"
     inkscape:pageopacity="0.0"
     inkscape:pagecheckerboard="0"
     inkscape:deskcolor="#d1d1d1"
     inkscape:zoom="0.26"
     inkscape:cx="-217.30769"
     inkscape:cy="630.76923"
     inkscape:window-width="1408"
     inkscape:window-height="823"
     inkscape:window-x="0"
     inkscape:window-y="30"
     inkscape:window-maximized="0"
     inkscape:current-layer="svg1" /><path
     id="rect13"
     style="display:inline;fill:#478cbf;stroke-width:1.63775"
     transform="rotate(-31.960006)"
     d="M -0.50889689,7.3757224 9.5096747,7.6885433 14.381036,16.942398 4.0354028,16.575783 Z"
     sodipodi:nodetypes="ccccc"
     inkscape:label="top-bg" /><path
     fill="#478cbf"
     d="m 4.8031496,14.649657 c -0.068687,2.469805 4.9469461,4.316065 5.0165158,1.814517 l 0.047204,-1.697323 C 9.9951134,14.632042 10.115333,14.487361 10.227528,14.332808 10.091277,14.009407 9.9276815,13.699345 9.7367398,13.402623 9.5575141,13.430717 9.3860586,13.477882 9.222372,13.544119 9.0627635,13.314483 8.8860821,13.101902 8.6923266,12.906375 8.7276101,12.682188 8.7505682,12.453543 8.7612012,12.22044 8.5223795,12.003967 8.2723913,11.815976 8.0112365,11.656469 7.8989138,11.815622 7.7987248,11.986133 7.7106701,12.168001 7.5102472,12.062984 7.3089294,11.990166 7.1067161,11.949546 7.0304298,11.708234 6.9416259,11.469363 6.8403053,11.232934 c -0.2647373,-0.03071 -0.5200983,-0.02551 -0.7660831,0.0156 -0.00242,0.236074 0.00749,0.476609 0.02973,0.721601 -0.2006634,0.05286 -0.3855325,0.134667 -0.5546066,0.245416 -0.1567788,-0.182152 -0.3222226,-0.351177 -0.4963307,-0.507075 -0.2034777,0.154058 -0.38089,0.340774 -0.5322356,0.560148 0.1014486,0.23183 0.211307,0.459732 0.3295739,0.683707 z"
     id="path2"
     inkscape:label="skew-godot"
     sodipodi:nodetypes="ccccccccccccccccccc"
     style="display:inline;stroke-width:0.00655356" /><g
     style="display:inline;fill:none"
     id="g16"
     transform="translate(0.1363682,-0.16268617)"
     inkscape:label="check-box"><path
       d="m 20.336822,7.4410084 -8.5,4.7222696 m 0,0 -8.5000304,-4.7222696 m 8.5000304,4.7222696 v 9.5 m 2,-0.6111 -1.223,0.6794 c -0.2836,0.1576 -0.4254,0.2363 -0.5755,0.2672 -0.133,0.0274 -0.27,0.0274 -0.4029,0 -0.1502,-0.0309 -0.292,-0.1096 -0.5756,-0.2672 l -7.4000304,-4.1111 c -0.29951,-0.1664 -0.44929,-0.2496 -0.55834,-0.368 -0.09647,-0.1046 -0.16948,-0.2287 -0.21415,-0.3639 -0.05048,-0.1528 -0.05048,-0.3241 -0.05048,-0.6668 V 8.1047084 c 0,-0.34264 0,-0.51396 0.05048,-0.66676 0.04467,-0.13518 0.11768,-0.25926 0.21415,-0.36395 0.10905,-0.11834 0.25882,-0.20154 0.55834,-0.36794 l 7.4000304,-4.11111 c 0.2836,-0.15756 0.4254,-0.23634 0.5756,-0.26723 0.1329,-0.02733 0.2699,-0.02733 0.4029,0 0.1501,0.03089 0.2919,0.10967 0.5755,0.26723 l 7.4,4.11111 c 0.2996,0.1664 0.4493,0.2496 0.5584,0.36794 0.0964,0.10469 0.1695,0.22877 0.2141,0.36395 0.0505,0.1528 0.0505,0.32412 0.0505,0.66676 V 12.663278 M 7.3368216,4.6632584 l 9.0000004,5"
       stroke="#000000"
       stroke-width="2"
       stroke-linecap="round"
       stroke-linejoin="round"
       id="path15"
       style="display:inline;stroke-width:1.62;stroke-dasharray:none"
       sodipodi:nodetypes="ccccccccccccccsscsccscccccsccc"
       inkscape:label="box" /><path
       d="m 15.836822,18.163278 2,2 4,-4"
       stroke="#000000"
       stroke-width="2"
       stroke-linecap="round"
       stroke-linejoin="round"
       id="path18"
       style="display:inline;stroke:#478cbf;stroke-width:1.62;stroke-dasharray:none;stroke-opacity:1"
       sodipodi:nodetypes="ccc"
       inkscape:label="check" /></g></svg>
